HIERARCHY
ROOT Hips
{
	OFFSET 0.000000 0.000000 0.000000
	CHANNELS 6 Xposition Yposition Zposition Xrotation Yrotation Zrotation
	JOINT LeftUpLeg_virtual
	{
		OFFSET 0.000000 0.000000 0.000000
		CHANNELS 3 Xrotation Yrotation Zrotation
		JOINT LeftUpLeg
		{
			OFFSET 10.205400 -3.823500 0.155100
			CHANNELS 3 Xrotation Yrotation Zrotation
			JOINT LeftLeg
			{
				OFFSET 0.708757 -12.982077 0.567790
				CHANNELS 3 Xrotation Yrotation Zrotation
				JOINT LeftFoot
				{
					OFFSET -0.708756 -10.717838 -2.184338
					CHANNELS 3 Xrotation Yrotation Zrotation
					JOINT LeftToeBase
					{
						OFFSET 0.108149 -7.191104 7.560241
						CHANNELS 3 Xrotation Yrotation Zrotation
						JOINT LeftToe_End
						{
							OFFSET 0.070230 0.081724 4.490308
							CHANNELS 3 Xrotation Yrotation Zrotation
							End Site
							{
								OFFSET 0 0 0
							}
						}
					}
				}
			}
		}
	}
	JOINT RightUpLeg_virtual
	{
		OFFSET 0.000000 0.000000 0.000000
		CHANNELS 3 Xrotation Yrotation Zrotation
		JOINT RightUpLeg
		{
			OFFSET -10.205400 -3.823500 0.005500
			CHANNELS 3 Xrotation Yrotation Zrotation
			JOINT RightLeg
			{
				OFFSET -0.708756 -12.982134 0.610632
				CHANNELS 3 Xrotation Yrotation Zrotation
				JOINT RightFoot
				{
					OFFSET 0.708754 -10.717769 -1.945823
					CHANNELS 3 Xrotation Yrotation Zrotation
					JOINT RightToeBase
					{
						OFFSET -0.108140 -7.191069 7.372968
						CHANNELS 3 Xrotation Yrotation Zrotation
						JOINT RightToe_End
						{
							OFFSET -0.070227 0.081735 4.479403
							CHANNELS 3 Xrotation Yrotation Zrotation
							End Site
							{
								OFFSET 0 0 0
							}
						}
					}
				}
			}
		}
	}
	JOINT Spine_virtual
	{
		OFFSET 0.000000 0.000000 0.000000
		CHANNELS 3 Xrotation Yrotation Zrotation
		JOINT Spine
		{
			OFFSET 0.000000 6.876099 0.125700
			CHANNELS 3 Xrotation Yrotation Zrotation
			JOINT Spine1
			{
				OFFSET 0.000000 5.730043 0.104720
				CHANNELS 3 Xrotation Yrotation Zrotation
				JOINT Spine1_split
				{
					OFFSET 0.000000 5.730043 0.104720
					CHANNELS 3 Xrotation Yrotation Zrotation
					JOINT Spine2
					{
						OFFSET 0.000000 5.730043 0.104720
						CHANNELS 3 Xrotation Yrotation Zrotation
						JOINT Neck_virtual
						{
							OFFSET 0.000000 0.000000 0.000000
							CHANNELS 3 Xrotation Yrotation Zrotation
							JOINT Neck
							{
								OFFSET 0.000000 10.314075 0.188496
								CHANNELS 3 Xrotation Yrotation Zrotation
								JOINT Head
								{
									OFFSET 0.000000 7.643700 -2.377400
									CHANNELS 3 Xrotation Yrotation Zrotation
									JOINT HeadTop_End
									{
										OFFSET 0.000000 43.788605 -13.619600
										CHANNELS 3 Xrotation Yrotation Zrotation
										End Site
										{
											OFFSET 0 0 0
										}
									}
								}
							}
						}
						JOINT LeftShoulder_virtual
						{
							OFFSET 0.000000 0.000000 0.000000
							CHANNELS 3 Xrotation Yrotation Zrotation
							JOINT LeftShoulder
							{
								OFFSET 2.196100 4.412489 0.087492
								CHANNELS 3 Xrotation Yrotation Zrotation
								JOINT LeftShoulder_split
								{
									OFFSET 2.196100 4.412489 0.087492
									CHANNELS 3 Xrotation Yrotation Zrotation
									JOINT LeftArm
									{
										OFFSET 8.771219 -2.981674 -0.026999
										CHANNELS 3 Xrotation Yrotation Zrotation
										JOINT LeftForeArm
										{
											OFFSET 8.512804 0.000000 -0.000000
											CHANNELS 3 Xrotation Yrotation Zrotation
											JOINT LeftHand
											{
												OFFSET 18.484802 0.000000 -0.000000
												CHANNELS 3 Xrotation Yrotation Zrotation
												End Site
												{
													OFFSET 0 0 0
												}
											}
										}
									}
								}
							}
						}
						JOINT RightShoulder_virtual
						{
							OFFSET 0.000000 0.000000 0.000000
							CHANNELS 3 Xrotation Yrotation Zrotation
							JOINT RightShoulder
							{
								OFFSET -2.196100 4.412496 0.070690
								CHANNELS 3 Xrotation Yrotation Zrotation
								JOINT RightShoulder_split
								{
									OFFSET -2.196100 4.412496 0.070690
									CHANNELS 3 Xrotation Yrotation Zrotation
									JOINT RightArm
									{
										OFFSET -8.771282 -2.981682 -0.094208
										CHANNELS 3 Xrotation Yrotation Zrotation
										JOINT RightForeArm
										{
											OFFSET -8.494598 0.000000 0.000000
											CHANNELS 3 Xrotation Yrotation Zrotation
											JOINT RightHand
											{
												OFFSET -18.483803 0.000000 0.000001
												CHANNELS 3 Xrotation Yrotation Zrotation
												End Site
												{
													OFFSET 0 0 0
												}
											}
										}
									}
								}
							}
						}
					}
				}
			}
		}
	}
}
MOTION
Frames: 5
Frame Time: 0.03333333
-0.220306 28.350571 -0.349607 0.000000 0.000000 0.000000 1.229325 -63.789486 4.642139 -33.061879 4.792288 28.849240 41.649589 -9.511454 -9.785246 -13.069800 1.237369 -9.383207 -0.236915 0.150316 0.701540 0.000000 0.000000 0.000000 -0.676704 -62.908569 3.862270 -30.583354 -4.307434 -36.221921 56.842743 10.141268 -3.684191 -28.010276 -5.905959 25.815550 2.841042 0.805819 -2.076506 0.000000 0.000000 0.000000 1.187694 -63.125380 4.259977 8.501913 0.911700 0.426547 10.626033 1.169331 -5.101218 0.574459 -1.419348 1.018079 0.000000 0.000000 0.000000 10.669362 0.519058 -3.956835 -17.980452 20.397158 11.450582 7.616264 33.469242 -7.387605 0.000000 0.000000 0.000000 11.163108 0.979384 -3.967535 -4.673815 -14.404877 1.096637 5.240135 -1.283901 -6.513337 -14.664210 9.632205 -25.773746 7.096754 -51.796644 3.073134 0.000000 0.000000 0.000000 11.250355 0.161209 -4.984084 -6.050282 16.114937 9.090833 -0.621572 3.368617 2.026702 -46.339121 -15.161440 31.978556 -145.442963 65.248872 146.293295 0.000000 0.000000 0.000000 
-0.348136 28.327131 -0.175589 0.000000 0.000000 0.000000 1.159503 -63.972843 4.640953 -33.455076 4.798746 29.149489 42.618260 -9.553531 -9.581739 -12.861320 1.378229 -9.409307 0.013363 0.246961 0.384811 0.000000 0.000000 0.000000 -0.195208 -62.853238 4.145651 -30.246875 -3.391700 -36.219199 55.976112 10.187716 -3.651077 -27.337071 -5.831735 26.732029 2.011742 0.634870 -1.988242 0.000000 0.000000 0.000000 1.453831 -63.492831 4.618261 8.548777 0.751627 0.384137 10.379720 1.026606 -5.070767 0.070206 -1.872127 0.908408 0.000000 0.000000 0.000000 10.144177 0.461795 -4.062714 -18.140638 19.395873 11.717587 7.635313 32.487002 -7.124817 0.000000 0.000000 0.000000 10.911599 0.826084 -3.964084 -4.786764 -14.040667 0.673373 5.067938 -0.780824 -6.768980 -13.217634 10.578466 -25.497390 7.211816 -51.849226 2.827801 0.000000 0.000000 0.000000 10.929518 0.062013 -5.000209 -6.056544 14.947971 9.639994 -0.336147 3.683335 2.798667 -43.263740 -20.068518 32.549970 -141.972121 65.254398 142.231545 0.000000 0.000000 0.000000 
-0.453196 28.226912 -0.051908 0.000000 0.000000 0.000000 1.502176 -63.396265 4.999177 -34.506515 4.370560 29.328006 44.609489 -9.731248 -9.072112 -12.737890 1.191936 -9.644670 0.395664 0.387772 -0.189826 0.000000 0.000000 0.000000 0.649962 -62.202888 4.787086 -29.850324 -2.662265 -36.623413 55.752454 10.008488 -3.465215 -27.234437 -5.802409 27.338426 1.631359 0.555716 -1.688645 0.000000 0.000000 0.000000 2.488455 -63.175452 5.701993 8.688762 0.350927 0.133083 9.863712 0.805141 -5.105563 -0.027553 -2.719458 0.722588 0.000000 0.000000 0.000000 9.367662 0.348467 -4.195596 -18.527265 17.773978 11.111492 6.040043 29.798179 -5.494786 0.000000 0.000000 0.000000 10.314922 0.583934 -4.047851 -4.905609 -13.377000 -0.284583 4.440514 -0.399283 -6.587346 -11.649128 11.845407 -25.016768 5.572939 -52.918014 0.957821 0.000000 0.000000 0.000000 10.245641 -0.087104 -5.013156 -5.839523 13.564086 10.279353 -0.959169 4.406412 3.762834 -39.717065 -25.487894 31.646100 -132.379462 61.566198 132.111213 0.000000 0.000000 0.000000 
-0.517106 28.034054 0.013611 0.000000 0.000000 0.000000 2.182689 -62.138957 5.715130 -36.254579 3.509698 29.221451 47.415218 -9.996935 -8.316283 -12.733879 0.671729 -10.147250 0.613847 0.527080 -0.761591 0.000000 0.000000 0.000000 1.710514 -61.079329 5.747869 -29.343644 -2.116482 -37.473006 56.374247 9.630723 -3.218901 -28.026447 -5.886980 27.592246 1.876313 0.606031 -1.302618 0.000000 0.000000 0.000000 4.018892 -62.122326 7.318448 8.911656 -0.196025 -0.249392 9.191179 0.574892 -5.164568 0.305394 -3.256936 0.643372 0.000000 0.000000 0.000000 8.474346 0.240704 -4.327911 -19.181659 15.577018 9.792410 3.273041 25.548217 -3.127176 0.000000 0.000000 0.000000 9.467387 0.333171 -4.164324 -5.010652 -12.416587 -1.619033 3.660096 -0.435626 -5.992217 -10.287201 13.126380 -24.407208 2.638938 -54.782092 -2.128553 0.000000 0.000000 0.000000 9.262086 -0.251300 -5.015096 -5.405422 12.107797 10.895098 -2.129372 4.954670 4.610941 -36.283205 -30.488298 29.598990 -122.758744 54.605648 122.007191 0.000000 0.000000 0.000000 
-0.528517 27.730343 0.049717 0.000000 0.000000 0.000000 3.081543 -60.405401 6.779919 -38.513313 2.306288 28.639246 50.775729 -10.179634 -7.453709 -12.808356 -0.010961 -10.826374 0.554144 0.617713 -1.121595 0.000000 0.000000 0.000000 2.694367 -59.663533 6.910267 -28.952182 -1.570187 -38.797281 58.101496 9.157972 -3.034427 -29.863868 -6.167732 27.684360 2.412249 0.769832 -0.868372 0.000000 0.000000 0.000000 5.600823 -60.492499 9.110798 9.169585 -0.738209 -0.645263 8.426660 0.421963 -5.186633 0.670384 -3.508931 0.743797 0.000000 0.000000 0.000000 7.578705 0.191835 -4.416005 -20.089002 12.953368 8.049451 0.018334 20.183154 -0.774710 0.000000 0.000000 0.000000 8.441401 0.170520 -4.232663 -5.074256 -11.327868 -3.161297 2.923834 -0.674181 -5.293105 -9.449912 14.320737 -24.167808 -0.529462 -56.447777 -5.568303 0.000000 0.000000 0.000000 8.127042 -0.369467 -4.952326 -4.936131 10.822905 11.353800 -2.507634 5.237622 4.609792 -33.500070 -34.252900 26.873210 -114.756440 46.474755 113.544027 0.000000 0.000000 0.000000 
